<?xml version="1.0" standalone="no"?>
<!DOCTYPE svg PUBLIC "-//W3C//DTD SVG 20010904//EN"
 "http://www.w3.org/TR/2001/REC-SVG-20010904/DTD/svg10.dtd">
<svg version="1.0" xmlns="http://www.w3.org/2000/svg"
 width="700.000000pt" height="700.000000pt" viewBox="0 0 700.000000 700.000000"
 preserveAspectRatio="xMidYMid meet">
<metadata>
Created by potrace 1.14, written by Peter Selinger 2001-2017
</metadata>
<g transform="translate(0.000000,700.000000) scale(0.100000,-0.100000)"
fill="#000000" stroke="none">
<path d="M2359 6923 c-164 -41 -286 -153 -338 -311 -41 -121 -23 -278 44 -383
18 -30 186 -206 381 -401 l348 -348 -1334 -1336 c-734 -734 -1340 -1341 -1346
-1348 -7 -7 -25 -37 -42 -67 -142 -257 3 -591 291 -669 117 -32 268 -8 373 58
23 14 644 628 1380 1364 l1339 1338 659 -660 660 -660 -660 -660 -660 -659
-354 353 c-261 261 -369 362 -410 384 -153 84 -317 82 -471 -5 -222 -126 -294
-438 -150 -653 16 -24 185 -200 377 -391 l348 -348 -354 -355 c-280 -280 -361
-367 -387 -415 -18 -34 -30 -61 -27 -61 4 0 2 -6 -4 -12 -5 -7 -14 -35 -18
-63 -37 -233 86 -442 308 -526 118 -45 297 -21 407 53 25 17 201 186 391 375
l344 343 344 -342 c189 -189 350 -348 357 -355 23 -22 129 -71 178 -84 31 -7
82 -10 137 -6 72 5 102 12 163 40 250 116 346 424 205 660 -19 32 -165 186
-372 394 -188 189 -341 348 -341 353 0 6 295 306 654 666 l655 654 352 -351
c263 -263 367 -361 411 -385 200 -113 455 -60 595 123 112 149 128 342 40 508
-19 35 -133 157 -377 403 -192 194 -351 356 -353 360 -1 5 142 152 318 328
362 360 426 434 446 517 2 9 7 27 10 40 14 51 13 164 -2 222 -41 156 -165 287
-317 332 -134 40 -301 12 -407 -69 -14 -10 -181 -174 -371 -363 l-345 -345
-655 655 c-360 360 -654 659 -654 664 0 6 158 169 351 363 308 311 355 361
383 419 148 302 -59 657 -392 673 -105 5 -223 -29 -295 -84 -15 -11 -182 -176
-372 -365 l-346 -345 -354 353 c-236 235 -371 363 -404 381 -103 56 -234 75
-337 49z"/>
</g>
</svg>
